<mxfile host="app.diagrams.net" modified="2022-10-18T06:44:43.984Z" agent="5.0 (Windows NT 6.1; Win64; x64) AppleWebKit/537.36 (KHTML, like Gecko) Chrome/106.0.0.0 Safari/537.36" etag="GHvJcAmzHl5Phcioaary" version="20.4.1" type="github">
  <diagram id="1IPvwTmGgg7yb8myD1qz" name="第 1 页">
    <mxGraphModel dx="1108" dy="450" grid="1" gridSize="10" guides="1" tooltips="1" connect="1" arrows="1" fold="1" page="1" pageScale="1" pageWidth="827" pageHeight="1169" math="0" shadow="0">
      <root>
        <mxCell id="0" />
        <mxCell id="1" parent="0" />
        <mxCell id="h9y1--5MOIsMn7W2vYmu-1" value="用户活动记录" style="whiteSpace=wrap;html=1;align=center;" vertex="1" parent="1">
          <mxGeometry x="300" y="240" width="100" height="40" as="geometry" />
        </mxCell>
        <mxCell id="h9y1--5MOIsMn7W2vYmu-2" value="模板template" style="whiteSpace=wrap;html=1;align=center;" vertex="1" parent="1">
          <mxGeometry x="740" y="40" width="100" height="40" as="geometry" />
        </mxCell>
        <mxCell id="h9y1--5MOIsMn7W2vYmu-3" value="背景视频位置详情" style="whiteSpace=wrap;html=1;align=center;" vertex="1" parent="1">
          <mxGeometry x="740" y="240" width="100" height="40" as="geometry" />
        </mxCell>
        <mxCell id="h9y1--5MOIsMn7W2vYmu-17" value="用户活动合成记录" style="whiteSpace=wrap;html=1;align=center;" vertex="1" parent="1">
          <mxGeometry x="540" y="240" width="100" height="40" as="geometry" />
        </mxCell>
        <mxCell id="h9y1--5MOIsMn7W2vYmu-22" value="用户入参实体&lt;br&gt;上传photo+人脸" style="whiteSpace=wrap;html=1;align=center;" vertex="1" parent="1">
          <mxGeometry x="290" y="40" width="120" height="40" as="geometry" />
        </mxCell>
        <mxCell id="h9y1--5MOIsMn7W2vYmu-28" value="活照片animate" style="whiteSpace=wrap;html=1;align=center;" vertex="1" parent="1">
          <mxGeometry x="540" y="40" width="100" height="40" as="geometry" />
        </mxCell>
        <mxCell id="h9y1--5MOIsMn7W2vYmu-33" value="" style="endArrow=none;html=1;rounded=0;exitX=1;exitY=0.5;exitDx=0;exitDy=0;entryX=0;entryY=0.5;entryDx=0;entryDy=0;" edge="1" parent="1" source="h9y1--5MOIsMn7W2vYmu-22" target="h9y1--5MOIsMn7W2vYmu-28">
          <mxGeometry relative="1" as="geometry">
            <mxPoint x="430" y="130" as="sourcePoint" />
            <mxPoint x="590" y="130" as="targetPoint" />
          </mxGeometry>
        </mxCell>
        <mxCell id="h9y1--5MOIsMn7W2vYmu-34" value="2" style="resizable=0;html=1;align=left;verticalAlign=bottom;" connectable="0" vertex="1" parent="h9y1--5MOIsMn7W2vYmu-33">
          <mxGeometry x="-1" relative="1" as="geometry" />
        </mxCell>
        <mxCell id="h9y1--5MOIsMn7W2vYmu-35" value="8" style="resizable=0;html=1;align=right;verticalAlign=bottom;" connectable="0" vertex="1" parent="h9y1--5MOIsMn7W2vYmu-33">
          <mxGeometry x="1" relative="1" as="geometry" />
        </mxCell>
        <mxCell id="h9y1--5MOIsMn7W2vYmu-36" value="" style="endArrow=none;html=1;rounded=0;exitX=1;exitY=0.5;exitDx=0;exitDy=0;entryX=0;entryY=0.5;entryDx=0;entryDy=0;" edge="1" parent="1" source="h9y1--5MOIsMn7W2vYmu-1" target="h9y1--5MOIsMn7W2vYmu-17">
          <mxGeometry relative="1" as="geometry">
            <mxPoint x="440" y="150" as="sourcePoint" />
            <mxPoint x="600" y="150" as="targetPoint" />
          </mxGeometry>
        </mxCell>
        <mxCell id="h9y1--5MOIsMn7W2vYmu-37" value="1" style="resizable=0;html=1;align=left;verticalAlign=bottom;" connectable="0" vertex="1" parent="h9y1--5MOIsMn7W2vYmu-36">
          <mxGeometry x="-1" relative="1" as="geometry" />
        </mxCell>
        <mxCell id="h9y1--5MOIsMn7W2vYmu-38" value="7" style="resizable=0;html=1;align=right;verticalAlign=bottom;" connectable="0" vertex="1" parent="h9y1--5MOIsMn7W2vYmu-36">
          <mxGeometry x="1" relative="1" as="geometry" />
        </mxCell>
        <mxCell id="h9y1--5MOIsMn7W2vYmu-39" value="" style="endArrow=none;html=1;rounded=0;exitX=0.5;exitY=1;exitDx=0;exitDy=0;" edge="1" parent="1" source="h9y1--5MOIsMn7W2vYmu-28" target="h9y1--5MOIsMn7W2vYmu-17">
          <mxGeometry relative="1" as="geometry">
            <mxPoint x="720" y="130" as="sourcePoint" />
            <mxPoint x="880" y="130" as="targetPoint" />
          </mxGeometry>
        </mxCell>
        <mxCell id="h9y1--5MOIsMn7W2vYmu-40" value="1.2.3" style="resizable=0;html=1;align=left;verticalAlign=bottom;" connectable="0" vertex="1" parent="h9y1--5MOIsMn7W2vYmu-39">
          <mxGeometry x="-1" relative="1" as="geometry">
            <mxPoint y="30" as="offset" />
          </mxGeometry>
        </mxCell>
        <mxCell id="h9y1--5MOIsMn7W2vYmu-41" value="1" style="resizable=0;html=1;align=right;verticalAlign=bottom;" connectable="0" vertex="1" parent="h9y1--5MOIsMn7W2vYmu-39">
          <mxGeometry x="1" relative="1" as="geometry" />
        </mxCell>
        <mxCell id="h9y1--5MOIsMn7W2vYmu-42" value="" style="endArrow=none;html=1;rounded=0;exitX=1;exitY=0.5;exitDx=0;exitDy=0;" edge="1" parent="1" source="h9y1--5MOIsMn7W2vYmu-28" target="h9y1--5MOIsMn7W2vYmu-2">
          <mxGeometry relative="1" as="geometry">
            <mxPoint x="620" y="110" as="sourcePoint" />
            <mxPoint x="780" y="110" as="targetPoint" />
          </mxGeometry>
        </mxCell>
        <mxCell id="h9y1--5MOIsMn7W2vYmu-43" value="1" style="resizable=0;html=1;align=left;verticalAlign=bottom;" connectable="0" vertex="1" parent="h9y1--5MOIsMn7W2vYmu-42">
          <mxGeometry x="-1" relative="1" as="geometry" />
        </mxCell>
        <mxCell id="h9y1--5MOIsMn7W2vYmu-44" value="1" style="resizable=0;html=1;align=right;verticalAlign=bottom;" connectable="0" vertex="1" parent="h9y1--5MOIsMn7W2vYmu-42">
          <mxGeometry x="1" relative="1" as="geometry" />
        </mxCell>
        <mxCell id="h9y1--5MOIsMn7W2vYmu-52" value="模板与背景视频配置" style="whiteSpace=wrap;html=1;align=center;" vertex="1" parent="1">
          <mxGeometry x="900" y="140" width="150" height="40" as="geometry" />
        </mxCell>
        <mxCell id="h9y1--5MOIsMn7W2vYmu-53" value="" style="endArrow=none;html=1;rounded=0;exitX=0.5;exitY=1;exitDx=0;exitDy=0;entryX=0.5;entryY=0;entryDx=0;entryDy=0;" edge="1" parent="1" source="h9y1--5MOIsMn7W2vYmu-2" target="h9y1--5MOIsMn7W2vYmu-3">
          <mxGeometry relative="1" as="geometry">
            <mxPoint x="750" y="120" as="sourcePoint" />
            <mxPoint x="910" y="120" as="targetPoint" />
          </mxGeometry>
        </mxCell>
        <mxCell id="h9y1--5MOIsMn7W2vYmu-54" value="1,2,3" style="resizable=0;html=1;align=left;verticalAlign=bottom;" connectable="0" vertex="1" parent="h9y1--5MOIsMn7W2vYmu-53">
          <mxGeometry x="-1" relative="1" as="geometry">
            <mxPoint y="20" as="offset" />
          </mxGeometry>
        </mxCell>
        <mxCell id="h9y1--5MOIsMn7W2vYmu-55" value="1" style="resizable=0;html=1;align=right;verticalAlign=bottom;" connectable="0" vertex="1" parent="h9y1--5MOIsMn7W2vYmu-53">
          <mxGeometry x="1" relative="1" as="geometry" />
        </mxCell>
        <mxCell id="h9y1--5MOIsMn7W2vYmu-56" value="" style="endArrow=none;html=1;rounded=0;exitX=1;exitY=0.5;exitDx=0;exitDy=0;entryX=0;entryY=0.5;entryDx=0;entryDy=0;" edge="1" parent="1" source="h9y1--5MOIsMn7W2vYmu-17" target="h9y1--5MOIsMn7W2vYmu-3">
          <mxGeometry relative="1" as="geometry">
            <mxPoint x="660" y="250" as="sourcePoint" />
            <mxPoint x="650" y="160" as="targetPoint" />
          </mxGeometry>
        </mxCell>
        <mxCell id="h9y1--5MOIsMn7W2vYmu-57" value="1" style="resizable=0;html=1;align=left;verticalAlign=bottom;" connectable="0" vertex="1" parent="h9y1--5MOIsMn7W2vYmu-56">
          <mxGeometry x="-1" relative="1" as="geometry" />
        </mxCell>
        <mxCell id="h9y1--5MOIsMn7W2vYmu-58" value="1" style="resizable=0;html=1;align=right;verticalAlign=bottom;" connectable="0" vertex="1" parent="h9y1--5MOIsMn7W2vYmu-56">
          <mxGeometry x="1" relative="1" as="geometry" />
        </mxCell>
        <mxCell id="h9y1--5MOIsMn7W2vYmu-59" value="" style="endArrow=none;html=1;rounded=0;" edge="1" parent="1" target="h9y1--5MOIsMn7W2vYmu-52">
          <mxGeometry relative="1" as="geometry">
            <mxPoint x="790" y="160" as="sourcePoint" />
            <mxPoint x="1000" y="120" as="targetPoint" />
          </mxGeometry>
        </mxCell>
      </root>
    </mxGraphModel>
  </diagram>
</mxfile>
